<mxfile host="app.diagrams.net" modified="2020-09-08T13:40:34.622Z" agent="5.0 (X11; Linux x86_64) AppleWebKit/537.36 (KHTML, like Gecko) Chrome/85.0.4183.83 Safari/537.36" etag="RGtwTkePp9mHiN-qVJTF" version="13.6.9" type="github">
  <diagram id="jnMGk_MNuz8sz8Nc8zkI" name="Page-1">
    <mxGraphModel dx="1422" dy="2002" grid="1" gridSize="10" guides="1" tooltips="1" connect="1" arrows="1" fold="1" page="1" pageScale="1" pageWidth="827" pageHeight="1169" math="0" shadow="0">
      <root>
        <mxCell id="0" />
        <mxCell id="1" parent="0" />
        <mxCell id="3TZ8NitiBGtua1yy8Xvi-2" value="Buy to ${TYPE}" style="ellipse;whiteSpace=wrap;html=1;" vertex="1" parent="1">
          <mxGeometry x="331" y="10" width="120" height="70" as="geometry" />
        </mxCell>
        <mxCell id="3TZ8NitiBGtua1yy8Xvi-3" value="" style="endArrow=classic;html=1;exitX=0.5;exitY=1;exitDx=0;exitDy=0;entryX=0.5;entryY=0;entryDx=0;entryDy=0;" edge="1" parent="1" source="3TZ8NitiBGtua1yy8Xvi-2" target="3TZ8NitiBGtua1yy8Xvi-4">
          <mxGeometry width="50" height="50" relative="1" as="geometry">
            <mxPoint x="250" y="320" as="sourcePoint" />
            <mxPoint x="390" y="110" as="targetPoint" />
          </mxGeometry>
        </mxCell>
        <mxCell id="3TZ8NitiBGtua1yy8Xvi-4" value="Create Order in DB with status ${STATUS}.&lt;br&gt;Call cloud function" style="rounded=0;whiteSpace=wrap;html=1;" vertex="1" parent="1">
          <mxGeometry x="331" y="160" width="120" height="60" as="geometry" />
        </mxCell>
        <mxCell id="3TZ8NitiBGtua1yy8Xvi-5" value="Cloud function call retriveOrder and get status as ....." style="rounded=0;whiteSpace=wrap;html=1;" vertex="1" parent="1">
          <mxGeometry x="330" y="290" width="120" height="60" as="geometry" />
        </mxCell>
        <mxCell id="3TZ8NitiBGtua1yy8Xvi-6" value="submitted, accepted, recived, pending_cancel" style="rounded=0;whiteSpace=wrap;html=1;" vertex="1" parent="1">
          <mxGeometry x="100" y="360" width="120" height="60" as="geometry" />
        </mxCell>
        <mxCell id="3TZ8NitiBGtua1yy8Xvi-7" value="" style="endArrow=classic;html=1;exitX=0.5;exitY=1;exitDx=0;exitDy=0;" edge="1" parent="1" source="3TZ8NitiBGtua1yy8Xvi-4">
          <mxGeometry width="50" height="50" relative="1" as="geometry">
            <mxPoint x="250" y="290" as="sourcePoint" />
            <mxPoint x="391" y="285" as="targetPoint" />
            <Array as="points" />
          </mxGeometry>
        </mxCell>
        <mxCell id="3TZ8NitiBGtua1yy8Xvi-9" value="" style="endArrow=classic;html=1;entryX=1;entryY=0.25;entryDx=0;entryDy=0;exitX=0;exitY=1;exitDx=0;exitDy=0;" edge="1" parent="1" source="3TZ8NitiBGtua1yy8Xvi-5" target="3TZ8NitiBGtua1yy8Xvi-6">
          <mxGeometry width="50" height="50" relative="1" as="geometry">
            <mxPoint x="250" y="280" as="sourcePoint" />
            <mxPoint x="300" y="230" as="targetPoint" />
          </mxGeometry>
        </mxCell>
        <mxCell id="3TZ8NitiBGtua1yy8Xvi-11" value="Call this function again" style="rounded=0;whiteSpace=wrap;html=1;" vertex="1" parent="1">
          <mxGeometry x="715" y="620" width="120" height="60" as="geometry" />
        </mxCell>
        <mxCell id="3TZ8NitiBGtua1yy8Xvi-12" value="filled, canceled, expired, rejected" style="rounded=0;whiteSpace=wrap;html=1;" vertex="1" parent="1">
          <mxGeometry x="330" y="360" width="120" height="60" as="geometry" />
        </mxCell>
        <mxCell id="3TZ8NitiBGtua1yy8Xvi-13" value="partlly_filled" style="rounded=0;whiteSpace=wrap;html=1;" vertex="1" parent="1">
          <mxGeometry x="620" y="360" width="120" height="60" as="geometry" />
        </mxCell>
        <mxCell id="3TZ8NitiBGtua1yy8Xvi-14" value="if filled_qty in broker and filled_qty in DB equal&amp;nbsp;" style="rounded=0;whiteSpace=wrap;html=1;" vertex="1" parent="1">
          <mxGeometry x="620" y="440" width="120" height="60" as="geometry" />
        </mxCell>
        <mxCell id="3TZ8NitiBGtua1yy8Xvi-15" value="Change order in DB.&lt;br&gt;Call this function" style="rounded=0;whiteSpace=wrap;html=1;" vertex="1" parent="1">
          <mxGeometry x="515.5" y="620" width="119" height="60" as="geometry" />
        </mxCell>
        <mxCell id="3TZ8NitiBGtua1yy8Xvi-17" value="YES" style="ellipse;whiteSpace=wrap;html=1;" vertex="1" parent="1">
          <mxGeometry x="750" y="525" width="50" height="45" as="geometry" />
        </mxCell>
        <mxCell id="3TZ8NitiBGtua1yy8Xvi-18" value="NO" style="ellipse;whiteSpace=wrap;html=1;" vertex="1" parent="1">
          <mxGeometry x="550" y="525" width="50" height="45" as="geometry" />
        </mxCell>
        <mxCell id="3TZ8NitiBGtua1yy8Xvi-19" value="" style="endArrow=classic;html=1;entryX=-0.008;entryY=0.15;entryDx=0;entryDy=0;entryPerimeter=0;exitX=1;exitY=1;exitDx=0;exitDy=0;" edge="1" parent="1" source="3TZ8NitiBGtua1yy8Xvi-5" target="3TZ8NitiBGtua1yy8Xvi-13">
          <mxGeometry width="50" height="50" relative="1" as="geometry">
            <mxPoint x="370" y="470" as="sourcePoint" />
            <mxPoint x="420" y="420" as="targetPoint" />
          </mxGeometry>
        </mxCell>
        <mxCell id="3TZ8NitiBGtua1yy8Xvi-21" value="" style="endArrow=classic;html=1;exitX=0.5;exitY=1;exitDx=0;exitDy=0;" edge="1" parent="1" source="3TZ8NitiBGtua1yy8Xvi-13" target="3TZ8NitiBGtua1yy8Xvi-14">
          <mxGeometry width="50" height="50" relative="1" as="geometry">
            <mxPoint x="370" y="470" as="sourcePoint" />
            <mxPoint x="420" y="420" as="targetPoint" />
          </mxGeometry>
        </mxCell>
        <mxCell id="3TZ8NitiBGtua1yy8Xvi-22" value="" style="endArrow=classic;html=1;entryX=1;entryY=0;entryDx=0;entryDy=0;exitX=0;exitY=1;exitDx=0;exitDy=0;" edge="1" parent="1" source="3TZ8NitiBGtua1yy8Xvi-14" target="3TZ8NitiBGtua1yy8Xvi-18">
          <mxGeometry width="50" height="50" relative="1" as="geometry">
            <mxPoint x="370" y="470" as="sourcePoint" />
            <mxPoint x="420" y="420" as="targetPoint" />
          </mxGeometry>
        </mxCell>
        <mxCell id="3TZ8NitiBGtua1yy8Xvi-23" value="" style="endArrow=classic;html=1;entryX=0;entryY=0;entryDx=0;entryDy=0;exitX=1;exitY=1;exitDx=0;exitDy=0;" edge="1" parent="1" source="3TZ8NitiBGtua1yy8Xvi-14" target="3TZ8NitiBGtua1yy8Xvi-17">
          <mxGeometry width="50" height="50" relative="1" as="geometry">
            <mxPoint x="370" y="470" as="sourcePoint" />
            <mxPoint x="420" y="420" as="targetPoint" />
          </mxGeometry>
        </mxCell>
        <mxCell id="3TZ8NitiBGtua1yy8Xvi-24" value="" style="endArrow=classic;html=1;entryX=0.5;entryY=0;entryDx=0;entryDy=0;exitX=0.5;exitY=1;exitDx=0;exitDy=0;" edge="1" parent="1" source="3TZ8NitiBGtua1yy8Xvi-18" target="3TZ8NitiBGtua1yy8Xvi-15">
          <mxGeometry width="50" height="50" relative="1" as="geometry">
            <mxPoint x="370" y="470" as="sourcePoint" />
            <mxPoint x="420" y="420" as="targetPoint" />
          </mxGeometry>
        </mxCell>
        <mxCell id="3TZ8NitiBGtua1yy8Xvi-25" value="" style="endArrow=classic;html=1;entryX=0.5;entryY=0;entryDx=0;entryDy=0;exitX=0.5;exitY=1;exitDx=0;exitDy=0;" edge="1" parent="1" source="3TZ8NitiBGtua1yy8Xvi-17" target="3TZ8NitiBGtua1yy8Xvi-11">
          <mxGeometry width="50" height="50" relative="1" as="geometry">
            <mxPoint x="370" y="470" as="sourcePoint" />
            <mxPoint x="420" y="420" as="targetPoint" />
          </mxGeometry>
        </mxCell>
        <mxCell id="3TZ8NitiBGtua1yy8Xvi-26" value="" style="endArrow=classic;html=1;entryX=0.5;entryY=0;entryDx=0;entryDy=0;exitX=0.5;exitY=1;exitDx=0;exitDy=0;" edge="1" parent="1" source="3TZ8NitiBGtua1yy8Xvi-5" target="3TZ8NitiBGtua1yy8Xvi-12">
          <mxGeometry width="50" height="50" relative="1" as="geometry">
            <mxPoint x="370" y="470" as="sourcePoint" />
            <mxPoint x="420" y="420" as="targetPoint" />
          </mxGeometry>
        </mxCell>
        <mxCell id="3TZ8NitiBGtua1yy8Xvi-27" value="Call this function again" style="rounded=0;whiteSpace=wrap;html=1;" vertex="1" parent="1">
          <mxGeometry x="100" y="440" width="120" height="60" as="geometry" />
        </mxCell>
        <mxCell id="3TZ8NitiBGtua1yy8Xvi-28" value="" style="endArrow=classic;html=1;exitX=0.5;exitY=1;exitDx=0;exitDy=0;" edge="1" parent="1" source="3TZ8NitiBGtua1yy8Xvi-6" target="3TZ8NitiBGtua1yy8Xvi-27">
          <mxGeometry width="50" height="50" relative="1" as="geometry">
            <mxPoint x="370" y="470" as="sourcePoint" />
            <mxPoint x="420" y="420" as="targetPoint" />
          </mxGeometry>
        </mxCell>
        <mxCell id="3TZ8NitiBGtua1yy8Xvi-29" value="Update all field in DB&lt;br&gt;(If field add position)" style="rounded=0;whiteSpace=wrap;html=1;" vertex="1" parent="1">
          <mxGeometry x="331" y="440" width="120" height="60" as="geometry" />
        </mxCell>
        <mxCell id="3TZ8NitiBGtua1yy8Xvi-31" value="" style="endArrow=classic;html=1;exitX=0.5;exitY=1;exitDx=0;exitDy=0;" edge="1" parent="1" source="3TZ8NitiBGtua1yy8Xvi-15" target="3TZ8NitiBGtua1yy8Xvi-5">
          <mxGeometry width="50" height="50" relative="1" as="geometry">
            <mxPoint x="370" y="470" as="sourcePoint" />
            <mxPoint x="420" y="420" as="targetPoint" />
            <Array as="points">
              <mxPoint x="575" y="760" />
              <mxPoint x="630" y="760" />
              <mxPoint x="880" y="760" />
              <mxPoint x="880" y="315" />
            </Array>
          </mxGeometry>
        </mxCell>
        <mxCell id="3TZ8NitiBGtua1yy8Xvi-32" value="" style="endArrow=classic;html=1;exitX=0.5;exitY=1;exitDx=0;exitDy=0;" edge="1" parent="1" source="3TZ8NitiBGtua1yy8Xvi-11">
          <mxGeometry width="50" height="50" relative="1" as="geometry">
            <mxPoint x="655" y="720" as="sourcePoint" />
            <mxPoint x="800" y="760" as="targetPoint" />
            <Array as="points">
              <mxPoint x="775" y="760" />
            </Array>
          </mxGeometry>
        </mxCell>
        <mxCell id="3TZ8NitiBGtua1yy8Xvi-33" value="" style="endArrow=classic;html=1;exitX=0.5;exitY=1;exitDx=0;exitDy=0;" edge="1" parent="1" source="3TZ8NitiBGtua1yy8Xvi-27">
          <mxGeometry width="50" height="50" relative="1" as="geometry">
            <mxPoint x="320" y="470" as="sourcePoint" />
            <mxPoint x="650" y="760" as="targetPoint" />
            <Array as="points">
              <mxPoint x="160" y="760" />
            </Array>
          </mxGeometry>
        </mxCell>
        <mxCell id="3TZ8NitiBGtua1yy8Xvi-34" value="" style="endArrow=classic;html=1;entryX=0.5;entryY=0;entryDx=0;entryDy=0;exitX=0.5;exitY=1;exitDx=0;exitDy=0;" edge="1" parent="1" source="3TZ8NitiBGtua1yy8Xvi-12" target="3TZ8NitiBGtua1yy8Xvi-29">
          <mxGeometry width="50" height="50" relative="1" as="geometry">
            <mxPoint x="310" y="540" as="sourcePoint" />
            <mxPoint x="360" y="490" as="targetPoint" />
          </mxGeometry>
        </mxCell>
        <mxCell id="3TZ8NitiBGtua1yy8Xvi-37" value="&lt;b&gt;&lt;font style=&quot;font-size: 72px&quot;&gt;1&lt;/font&gt;&lt;/b&gt;" style="text;html=1;align=center;verticalAlign=middle;resizable=0;points=[];autosize=1;" vertex="1" parent="1">
          <mxGeometry x="460" y="20" width="60" height="40" as="geometry" />
        </mxCell>
        <mxCell id="3TZ8NitiBGtua1yy8Xvi-39" value="&lt;font style=&quot;font-size: 48px&quot;&gt;&lt;b&gt;2&lt;/b&gt;&lt;/font&gt;" style="text;html=1;align=center;verticalAlign=middle;resizable=0;points=[];autosize=1;" vertex="1" parent="1">
          <mxGeometry x="490" y="185" width="40" height="30" as="geometry" />
        </mxCell>
        <mxCell id="3TZ8NitiBGtua1yy8Xvi-40" value="&lt;span style=&quot;font-size: 48px&quot;&gt;&lt;b&gt;3&lt;/b&gt;&lt;/span&gt;" style="text;html=1;align=center;verticalAlign=middle;resizable=0;points=[];autosize=1;" vertex="1" parent="1">
          <mxGeometry x="270" y="305" width="40" height="30" as="geometry" />
        </mxCell>
        <mxCell id="3TZ8NitiBGtua1yy8Xvi-42" value="&lt;span style=&quot;font-size: 48px&quot;&gt;&lt;b&gt;4&lt;/b&gt;&lt;/span&gt;" style="text;html=1;align=center;verticalAlign=middle;resizable=0;points=[];autosize=1;" vertex="1" parent="1">
          <mxGeometry x="41" y="370" width="40" height="30" as="geometry" />
        </mxCell>
        <mxCell id="3TZ8NitiBGtua1yy8Xvi-43" value="&lt;div style=&quot;text-align: center&quot;&gt;&lt;font face=&quot;helvetica&quot;&gt;&lt;span style=&quot;font-size: 48px&quot;&gt;&lt;b&gt;5&lt;/b&gt;&lt;/span&gt;&lt;/font&gt;&lt;/div&gt;" style="text;whiteSpace=wrap;html=1;" vertex="1" parent="1">
          <mxGeometry x="50" y="430" width="50" height="40" as="geometry" />
        </mxCell>
        <mxCell id="3TZ8NitiBGtua1yy8Xvi-45" value="&lt;span style=&quot;font-size: 48px&quot;&gt;&lt;b&gt;6&lt;/b&gt;&lt;/span&gt;" style="text;html=1;align=center;verticalAlign=middle;resizable=0;points=[];autosize=1;" vertex="1" parent="1">
          <mxGeometry x="270" y="380" width="40" height="30" as="geometry" />
        </mxCell>
        <mxCell id="3TZ8NitiBGtua1yy8Xvi-46" value="&lt;span style=&quot;font-size: 48px&quot;&gt;&lt;b&gt;7&lt;/b&gt;&lt;/span&gt;" style="text;html=1;align=center;verticalAlign=middle;resizable=0;points=[];autosize=1;" vertex="1" parent="1">
          <mxGeometry x="270" y="455" width="40" height="30" as="geometry" />
        </mxCell>
        <mxCell id="3TZ8NitiBGtua1yy8Xvi-47" value="&lt;span style=&quot;font-size: 48px&quot;&gt;&lt;b&gt;8&lt;/b&gt;&lt;/span&gt;" style="text;html=1;align=center;verticalAlign=middle;resizable=0;points=[];autosize=1;" vertex="1" parent="1">
          <mxGeometry x="560" y="380" width="40" height="30" as="geometry" />
        </mxCell>
        <mxCell id="3TZ8NitiBGtua1yy8Xvi-48" value="&lt;span style=&quot;font-size: 48px&quot;&gt;&lt;b&gt;9&lt;/b&gt;&lt;/span&gt;" style="text;html=1;align=center;verticalAlign=middle;resizable=0;points=[];autosize=1;" vertex="1" parent="1">
          <mxGeometry x="555" y="450" width="40" height="30" as="geometry" />
        </mxCell>
        <mxCell id="3TZ8NitiBGtua1yy8Xvi-49" value="&lt;span style=&quot;font-size: 48px&quot;&gt;&lt;b&gt;10&lt;/b&gt;&lt;/span&gt;" style="text;html=1;align=center;verticalAlign=middle;resizable=0;points=[];autosize=1;" vertex="1" parent="1">
          <mxGeometry x="455" y="532.5" width="70" height="30" as="geometry" />
        </mxCell>
        <mxCell id="3TZ8NitiBGtua1yy8Xvi-52" value="&lt;span style=&quot;font-size: 48px&quot;&gt;&lt;b&gt;11&lt;/b&gt;&lt;/span&gt;" style="text;html=1;align=center;verticalAlign=middle;resizable=0;points=[];autosize=1;" vertex="1" parent="1">
          <mxGeometry x="440" y="635" width="70" height="30" as="geometry" />
        </mxCell>
        <mxCell id="3TZ8NitiBGtua1yy8Xvi-53" value="&lt;span style=&quot;font-size: 48px&quot;&gt;&lt;b&gt;12&lt;/b&gt;&lt;/span&gt;" style="text;html=1;align=center;verticalAlign=middle;resizable=0;points=[];autosize=1;" vertex="1" parent="1">
          <mxGeometry x="820" y="532.5" width="70" height="30" as="geometry" />
        </mxCell>
        <mxCell id="3TZ8NitiBGtua1yy8Xvi-54" value="&lt;div style=&quot;text-align: center&quot;&gt;&lt;font face=&quot;helvetica&quot;&gt;&lt;span style=&quot;font-size: 48px&quot;&gt;&lt;b&gt;13&lt;/b&gt;&lt;/span&gt;&lt;/font&gt;&lt;/div&gt;&lt;div style=&quot;text-align: center&quot;&gt;&lt;font face=&quot;helvetica&quot;&gt;&lt;span style=&quot;font-size: 48px&quot;&gt;&lt;b&gt;&lt;br&gt;&lt;/b&gt;&lt;/span&gt;&lt;/font&gt;&lt;/div&gt;" style="text;whiteSpace=wrap;html=1;" vertex="1" parent="1">
          <mxGeometry x="850" y="620" width="80" height="40" as="geometry" />
        </mxCell>
        <mxCell id="3TZ8NitiBGtua1yy8Xvi-55" value="1 (MARKET). -&amp;gt; 2 field -&amp;gt; 3 -&amp;gt; 6. (Problem 2 update in DB BUT this medicine for bitfinex and need added filed_at for all broker)." style="text;html=1;align=center;verticalAlign=middle;resizable=0;points=[];autosize=1;" vertex="1" parent="1">
          <mxGeometry y="790" width="690" height="20" as="geometry" />
        </mxCell>
        <mxCell id="3TZ8NitiBGtua1yy8Xvi-56" value="1 (LIMIT) -&amp;gt; 2) (accepted) -&amp;gt; 3 -&amp;gt; 4-&amp;gt; 5-&amp;gt; 3 (FEW moments later {FIELD OR EXPIRED}) -&amp;gt; 6 we not have problem in this CASE" style="text;html=1;align=center;verticalAlign=middle;resizable=0;points=[];autosize=1;" vertex="1" parent="1">
          <mxGeometry y="810" width="690" height="20" as="geometry" />
        </mxCell>
        <mxCell id="3TZ8NitiBGtua1yy8Xvi-58" value="1(LIMIT) -&amp;gt; 2 -&amp;gt; accepted -&amp;gt; 3 -&amp;gt; 4 -&amp;gt; 5 -&amp;gt;3 (FEW moments later. USER cancel this order.) -&amp;gt; 6 (PROBLEM. When user cancel order it update info in DB. AND cluod function update this order again. DECISION -&amp;gt; compare status in DB and&amp;nbsp; Broker)" style="text;html=1;align=center;verticalAlign=middle;resizable=0;points=[];autosize=1;" vertex="1" parent="1">
          <mxGeometry y="830" width="1330" height="20" as="geometry" />
        </mxCell>
        <mxCell id="3TZ8NitiBGtua1yy8Xvi-59" value="1(LIMIT) -&amp;gt; 2(Partli_filled) -&amp;gt; 3 -&amp;gt; 8 -&amp;gt; 9 -&amp;gt; 10 -&amp;gt; 3 -&amp;gt;8 -&amp;gt; 9 -&amp;gt; 12 -&amp;gt; 13 -&amp;gt; 3 -&amp;gt; 6 we not have problem in this Case" style="text;html=1;align=center;verticalAlign=middle;resizable=0;points=[];autosize=1;" vertex="1" parent="1">
          <mxGeometry y="850" width="620" height="20" as="geometry" />
        </mxCell>
      </root>
    </mxGraphModel>
  </diagram>
</mxfile>
